<svg xmlns="http://www.w3.org/2000/svg" width="512" height="512" viewBox="0 0 512 512">
  <rect width="512" height="512" rx="96" fill="#ffffff"/>
  <rect x="20" y="20" width="472" height="472" rx="80" fill="none" stroke="#e2e8ee" stroke-width="4"/>
  <g stroke="#234f6c" stroke-width="22" stroke-linecap="round" fill="none">
    <line x1="256" y1="120" x2="256" y2="392"/>
    <line x1="138" y1="188" x2="374" y2="324"/>
    <line x1="138" y1="324" x2="374" y2="188"/>
    <!-- top arrows -->
    <polyline points="226,150 256,120 286,150"/>
    <polyline points="226,362 256,392 286,362"/>
    <!-- left/right tips -->
    <polyline points="160,166 138,188 164,206"/>
    <polyline points="348,306 374,324 350,346"/>
    <polyline points="164,306 138,324 160,346"/>
    <polyline points="350,166 374,188 348,206"/>
  </g>
  <circle cx="256" cy="256" r="34" fill="#f37021"/>
  <text x="256" y="468" text-anchor="middle" font-family="Arial, sans-serif" font-size="46" font-weight="800" fill="#124837">FrozenWest</text>
</svg>
